<?xml version="1.0" encoding="UTF-8"?>
<svg id="Layer_1" data-name="Layer 1" xmlns="http://www.w3.org/2000/svg" viewBox="0 0 800 600">
  <defs>
    <style>
      .cls-1, .cls-2, .cls-3 {
        font-family: 'IBM Plex Serif', Charter, Georgia, serif;
      }

      .cls-1, .cls-2, .cls-4 {
        font-size: 26px;
      }

      .cls-1, .cls-5 {
        fill: #fdfbf3;
      }

      .cls-2 {
        fill: #2c2722;
      }

      .cls-6 {
        stroke: #54473b;
        stroke-width: 1.5px;
      }

      .cls-6, .cls-7, .cls-8 {
        fill: none;
        stroke-linecap: round;
        stroke-miterlimit: 10;
      }

      .cls-9 {
        fill: #54473b;
      }

      .cls-orange {
        fill: #c96442;
      }

      .cls-10 {
        fill: #54473b;
      }

      .cls-11 {
        fill: #fdfbf3;
        stroke: #54473b;
        stroke-width: 1.5px;
      }

      .cls-3 {
        fill: #2c2722;
        font-size: 25.61px;
      }

      .cls-7 {
        stroke-dasharray: 4;
      }

      .cls-7, .cls-8 {
        stroke: #54473b;
        stroke-width: 1.4px;
      }

      .cls-12 {
        fill: #2c2722;
        font-family: 'IBM Plex Serif', Charter, Georgia, serif;
        font-size: 17px;
        font-weight: 700;
      }

      .cls-13 {
        letter-spacing: 0em;
      }

      .cls-4, .cls-5 {
        font-family: 'IBM Plex Serif', Charter, Georgia, serif;
        font-style: italic;
        font-weight: 400;
      }

      .cls-4 {
        fill: #2c2722;
      }

      .cls-14 {
        fill: #fdfbf3;
        stroke: #54473b;
        stroke-width: 1.5px;
      }

      .cls-15 {
        letter-spacing: -.02em;
      }

      .cls-16 {
        letter-spacing: -.02em;
      }

      .cls-5 {
        font-size: 22px;
      }
    </style>
  </defs>
  <rect class="cls-11" x="450.28" y="77.1" width="139.72" height="50.94" rx="7.5" ry="7.5"/>
  <rect class="cls-11" x="640.23" y="77.1" width="139.72" height="50.94" rx="7.5" ry="7.5"/>
  <text class="cls-2" transform="translate(344.62 226.96)"><tspan x="0" y="0">program</tspan></text>
  <path class="cls-10" d="M771.33,257.8c7.51,0,13.62,6.11,13.62,13.62v304.17c0,7.51-6.11,13.62-13.62,13.62H46.01c-7.51,0-13.62-6.11-13.62-13.62v-304.17c0-7.51,6.11-13.62,13.62-13.62h725.33M771.33,256.4H46.01c-8.3,0-15.02,6.72-15.02,15.02v304.17c0,8.3,6.72,15.02,15.02,15.02h725.33c8.3,0,15.02-6.72,15.02-15.02v-304.17c0-8.3-6.72-15.02-15.02-15.02h0Z"/>
  <line class="cls-7" x1="30.99" y1="180.92" x2="794.07" y2="180.92"/>
  <rect class="cls-orange" x="60.32" y="278.37" width="386.87" height="50" rx="7.5" ry="7.5"/>
  <text class="cls-1" transform="translate(74.78 310.82)"><tspan x="0" y="0">Inferlet</tspan></text>
  <rect class="cls-14" x="60.32" y="386.97" width="702.36" height="50" rx="7.5" ry="7.5"/>
  <text class="cls-2" transform="translate(315.7 418.81)"><tspan x="0" y="0">Control layer</tspan></text>
  <rect class="cls-14" x="59.47" y="498.08" width="170.39" height="70.63" rx="7.5" ry="7.5"/>
  <text class="cls-3" transform="translate(68.58 525.2) scale(1.02 1)"><tspan x="0" y="0">alloc_kvpage</tspan><tspan x="32.24" y="30.73">handler</tspan></text>
  <rect class="cls-14" x="246.84" y="498.68" width="136.65" height="70.03" rx="7.5" ry="7.5"/>
  <rect class="cls-14" x="621.12" y="492.31" width="141.56" height="70" rx="7.5" ry="7.5"/>
  <g>
    <path d="M271.2,516.1v-1.95h2.26v-2c0-1.09.32-1.92.95-2.48s1.56-.85,2.77-.85c.21,0,.45.02.71.05.27.03.51.09.72.16v1.92c-.19-.07-.4-.12-.62-.14-.23-.03-.43-.04-.62-.04-.54,0-.95.1-1.25.31-.29.21-.44.61-.44,1.2v1.87h2.6v1.95h-2.6v11.49h-2.21v-11.49h-2.26Z"/>
    <path d="M279.93,518.12c.28-.86.69-1.6,1.25-2.24s1.24-1.13,2.05-1.5c.82-.36,1.75-.55,2.81-.55s2.01.18,2.82.55c.81.36,1.49.86,2.04,1.5.55.63.97,1.38,1.25,2.24.28.86.42,1.78.42,2.77s-.14,1.91-.42,2.76c-.28.85-.69,1.59-1.25,2.22-.56.63-1.24,1.13-2.04,1.48-.81.36-1.75.53-2.82.53s-1.99-.18-2.81-.53c-.81-.36-1.5-.85-2.05-1.48s-.97-1.37-1.25-2.22c-.28-.85-.42-1.77-.42-2.76s.14-1.91.42-2.77ZM282.18,523.06c.22.63.52,1.16.9,1.59.38.42.83.75,1.34.98.51.22,1.05.34,1.62.34s1.11-.11,1.62-.34c.51-.23.96-.55,1.34-.98.38-.42.68-.95.9-1.59.22-.63.32-1.36.32-2.17s-.11-1.54-.32-2.17c-.22-.63-.52-1.17-.9-1.6-.38-.43-.83-.76-1.34-.99-.51-.23-1.05-.34-1.62-.34s-1.11.11-1.62.34c-.51.23-.96.55-1.34.99-.38.43-.68.97-.9,1.6s-.33,1.36-.33,2.17.11,1.54.33,2.17Z"/>
    <path d="M297.17,514.15v2.83h.05c.54-1.09,1.2-1.9,1.98-2.42.78-.52,1.77-.76,2.96-.73v2.34c-.88,0-1.64.12-2.26.36s-1.13.6-1.51,1.07c-.38.47-.66,1.04-.83,1.7-.17.67-.26,1.43-.26,2.3v5.98h-2.21v-13.44h2.08Z"/>
    <path d="M314.8,527.59l-2.73-10.69h-.05l-2.7,10.69h-2.39l-4.32-13.44h2.44l3.04,11h.05l2.7-11h2.42l2.81,11h.05l3.02-11h2.29l-4.29,13.44h-2.34Z"/>
    <path d="M335.44,527.54c-.38.22-.91.34-1.59.34-.57,0-1.03-.16-1.37-.48-.34-.32-.51-.84-.51-1.57-.61.73-1.31,1.25-2.12,1.57-.81.32-1.68.48-2.61.48-.61,0-1.18-.07-1.73-.21s-1.02-.36-1.42-.65c-.4-.29-.71-.68-.95-1.16-.23-.48-.35-1.05-.35-1.73,0-.76.13-1.39.39-1.87s.6-.88,1.03-1.18c.42-.3.91-.53,1.46-.69s1.1-.29,1.68-.39c.61-.12,1.18-.21,1.73-.27.55-.06,1.03-.15,1.44-.26.42-.11.75-.28.99-.49.24-.22.36-.53.36-.95,0-.48-.09-.88-.27-1.17-.18-.29-.42-.52-.7-.68s-.61-.26-.96-.31c-.36-.05-.71-.08-1.05-.08-.94,0-1.72.18-2.34.53-.62.36-.96,1.03-1.01,2.02h-2.21c.04-.83.21-1.53.52-2.11.31-.57.73-1.04,1.25-1.39.52-.36,1.11-.61,1.78-.77.67-.16,1.38-.23,2.15-.23.61,0,1.21.04,1.81.13.6.09,1.14.26,1.62.53.49.27.88.64,1.17,1.13s.44,1.12.44,1.89v6.9c0,.52.03.9.09,1.14s.26.36.61.36c.19,0,.42-.03.68-.1v1.72ZM331.85,520.65c-.28.21-.64.36-1.09.45-.45.1-.92.17-1.42.23s-.99.13-1.5.21c-.5.08-.95.2-1.35.38-.4.17-.72.42-.97.74-.25.32-.38.75-.38,1.31,0,.36.07.67.22.92s.34.45.57.61.51.27.82.34c.31.07.64.1.99.1.73,0,1.35-.1,1.87-.3.52-.2.94-.45,1.27-.75.33-.3.57-.63.73-.98.16-.35.23-.69.23-1v-2.25Z"/>
    <path d="M339.5,514.15v2.83h.05c.54-1.09,1.2-1.9,1.98-2.42.78-.52,1.77-.76,2.96-.73v2.34c-.88,0-1.64.12-2.26.36s-1.13.6-1.51,1.07c-.38.47-.66,1.04-.83,1.7-.17.67-.26,1.43-.26,2.3v5.98h-2.21v-13.44h2.08Z"/>
    <path d="M355.49,527.59v-1.82h-.05c-.36.75-.94,1.28-1.72,1.61-.78.33-1.64.49-2.57.49-1.04,0-1.95-.19-2.72-.57-.77-.38-1.41-.89-1.92-1.53-.51-.64-.9-1.39-1.16-2.24s-.39-1.75-.39-2.7.12-1.85.38-2.7c.25-.85.63-1.59,1.14-2.22s1.15-1.14,1.92-1.51c.77-.37,1.67-.56,2.69-.56.35,0,.72.04,1.12.1.4.07.8.19,1.2.35s.78.38,1.13.65c.36.27.65.6.9,1h.05v-6.92h2.21v18.56h-2.21ZM347.54,522.82c.16.6.42,1.13.75,1.6s.77.84,1.3,1.12c.53.28,1.15.42,1.86.42s1.38-.15,1.9-.44.94-.68,1.27-1.16c.33-.48.57-1.02.71-1.62.15-.61.22-1.22.22-1.85,0-.66-.08-1.3-.23-1.91-.16-.62-.4-1.16-.74-1.62s-.78-.84-1.31-1.13-1.19-.43-1.95-.43-1.38.15-1.9.44c-.52.29-.94.69-1.25,1.17-.31.49-.54,1.04-.68,1.66s-.21,1.27-.21,1.92c0,.62.08,1.23.25,1.83Z"/>
    <path d="M275.69,540.23v7.1h.05c.17-.42.42-.77.73-1.05.31-.29.66-.52,1.05-.7.39-.18.8-.32,1.22-.4s.84-.13,1.24-.13c.88,0,1.62.12,2.21.36.59.24,1.07.58,1.43,1.01.36.43.62.95.77,1.55s.22,1.26.22,1.99v8.84h-2.21v-9.1c0-.83-.24-1.49-.73-1.98s-1.15-.73-2-.73c-.68,0-1.26.1-1.75.31s-.91.5-1.24.88c-.33.38-.58.83-.74,1.34-.17.51-.25,1.07-.25,1.68v7.59h-2.21v-18.56h2.21Z"/>
    <path d="M299.85,558.74c-.38.22-.91.34-1.59.34-.57,0-1.03-.16-1.36-.48-.34-.32-.51-.84-.51-1.57-.61.73-1.31,1.25-2.12,1.57-.81.32-1.68.48-2.61.48-.61,0-1.18-.07-1.73-.21-.55-.14-1.02-.36-1.42-.65-.4-.29-.71-.68-.95-1.16-.23-.48-.35-1.05-.35-1.73,0-.76.13-1.39.39-1.87.26-.49.6-.88,1.03-1.18.42-.3.91-.53,1.46-.69s1.11-.29,1.68-.39c.61-.12,1.18-.21,1.73-.27.55-.06,1.03-.15,1.44-.26.42-.11.74-.28.99-.49s.36-.53.36-.95c0-.48-.09-.88-.27-1.17-.18-.29-.42-.52-.7-.68-.29-.16-.61-.26-.96-.31-.36-.05-.71-.08-1.05-.08-.94,0-1.72.18-2.34.53-.62.36-.96,1.03-1.01,2.02h-2.21c.03-.83.21-1.53.52-2.11.31-.57.73-1.04,1.25-1.39.52-.36,1.11-.61,1.78-.77.67-.16,1.38-.23,2.14-.23.61,0,1.21.04,1.81.13.6.09,1.14.26,1.62.53.48.27.88.64,1.17,1.13.29.48.44,1.12.44,1.89v6.9c0,.52.03.9.09,1.14.06.24.26.36.61.36.19,0,.42-.03.68-.1v1.72ZM296.26,551.85c-.28.21-.64.36-1.09.45-.45.1-.92.17-1.42.23s-.99.13-1.5.21c-.5.08-.95.2-1.35.38-.4.17-.72.42-.98.74-.25.32-.38.75-.38,1.31,0,.36.07.67.22.92.15.25.34.45.57.61.23.16.51.27.82.34.31.07.64.1.99.1.73,0,1.35-.1,1.87-.3.52-.2.94-.45,1.27-.75s.57-.63.73-.98c.16-.35.23-.69.23-1v-2.25Z"/>
    <path d="M303.98,545.35v2.13h.05c.92-1.63,2.38-2.44,4.37-2.44.88,0,1.62.12,2.21.36.59.24,1.07.58,1.43,1.01.36.43.62.95.77,1.55s.22,1.26.22,1.99v8.84h-2.21v-9.1c0-.83-.24-1.49-.73-1.98-.49-.49-1.15-.73-2-.73-.68,0-1.26.1-1.75.31-.49.21-.91.5-1.24.88-.33.38-.58.83-.74,1.34-.17.51-.25,1.07-.25,1.68v7.59h-2.21v-13.44h2.08Z"/>
    <path d="M326.16,558.79v-1.82h-.05c-.36.75-.94,1.28-1.72,1.61s-1.64.49-2.57.49c-1.04,0-1.95-.19-2.72-.57s-1.41-.89-1.92-1.53c-.51-.64-.9-1.39-1.16-2.24s-.39-1.75-.39-2.7.12-1.85.38-2.7c.25-.85.63-1.59,1.14-2.22s1.15-1.14,1.92-1.51c.77-.37,1.67-.56,2.69-.56.35,0,.72.04,1.12.1.4.07.8.19,1.2.35.4.17.78.38,1.13.65.35.27.65.6.9,1h.05v-6.92h2.21v18.56h-2.21ZM318.22,554.02c.16.6.42,1.13.75,1.6s.77.84,1.3,1.12c.53.28,1.15.42,1.86.42s1.38-.15,1.9-.44c.52-.29.94-.68,1.27-1.16.33-.48.57-1.02.71-1.62.15-.61.22-1.22.22-1.85,0-.66-.08-1.3-.23-1.91-.16-.62-.4-1.16-.74-1.62s-.78-.84-1.31-1.13-1.19-.43-1.95-.43-1.38.15-1.9.44c-.52.29-.94.69-1.25,1.17-.31.49-.54,1.04-.68,1.66s-.21,1.27-.21,1.92c0,.62.08,1.23.25,1.83Z"/>
    <path d="M334.11,540.23v18.56h-2.21v-18.56h2.21Z"/>
    <path d="M347.06,557.94c-1.01.76-2.27,1.14-3.8,1.14-1.07,0-2.01-.17-2.79-.52-.79-.35-1.45-.83-1.99-1.46-.54-.62-.94-1.37-1.21-2.24-.27-.87-.42-1.81-.46-2.83,0-1.02.16-1.96.47-2.81.31-.85.75-1.59,1.31-2.21s1.23-1.11,2-1.46c.77-.35,1.62-.52,2.53-.52,1.2,0,2.19.25,2.98.74.79.49,1.42,1.12,1.9,1.88s.81,1.59.99,2.5c.18.9.25,1.76.22,2.57h-10.06c-.02.59.05,1.15.21,1.68s.41,1,.75,1.4.79.73,1.33.97c.54.24,1.17.36,1.9.36.94,0,1.7-.22,2.3-.65.6-.43.99-1.09,1.18-1.98h2.18c-.29,1.51-.94,2.64-1.95,3.41ZM346.53,549.3c-.2-.47-.47-.87-.81-1.21-.34-.34-.74-.61-1.2-.81-.46-.2-.97-.3-1.52-.3s-1.09.1-1.55.3-.85.47-1.18.82c-.33.35-.59.75-.78,1.21-.19.46-.3.95-.34,1.47h7.72c-.04-.52-.15-1.01-.35-1.48Z"/>
    <path d="M353.51,545.35v2.83h.05c.54-1.09,1.2-1.9,1.98-2.42.78-.52,1.77-.76,2.96-.73v2.34c-.88,0-1.64.12-2.26.36-.62.24-1.13.6-1.51,1.07-.38.47-.66,1.04-.83,1.7-.17.67-.26,1.43-.26,2.3v5.98h-2.21v-13.44h2.08Z"/>
  </g>
  <rect class="cls-orange" x="471.89" y="278.37" width="130" height="50" rx="7.5" ry="7.5"/>
  <text class="cls-1" transform="translate(497.17 311.11)"><tspan x="0" y="0">Inferlet</tspan></text>
  <rect class="cls-orange" x="633.15" y="278.27" width="130" height="50" rx="7.5" ry="7.5"/>
  <text class="cls-1" transform="translate(662.4 310.34)"><tspan x="0" y="0">Inferlet</tspan></text>
  <text class="cls-2" transform="translate(146.26 363.34)"><tspan x="0" y="0">Stream of API calls</tspan></text>
  <text class="cls-2" transform="translate(327.74 469.68)"><tspan x="0" y="0">Batched API calls</tspan></text>
  <text class="cls-5" transform="translate(198.03 310.82)"><tspan x="0" y="0">Custom generation logic</tspan></text>
  <text class="cls-2" transform="translate(645.67 522.87)"><tspan x="0" y="0">get_dist</tspan><tspan x="2.89" y="31.2">handler</tspan></text>
  <text class="cls-12" transform="translate(484.28 527.59)"><tspan x="0" y="0">. . .</tspan></text>
  <g>
    <line class="cls-6" x1="694.38" y1="345.64" x2="694.38" y2="363.72"/>
    <polygon class="cls-9" points="694.38 337.16 689.5 349.1 694.38 346.27 699.25 349.1 694.38 337.16"/>
    <path class="cls-9" d="M694.38,370.96c-1.26-3.41-3.42-7.64-5.71-10.26l5.71,2.06,5.71-2.06c-2.29,2.62-4.44,6.85-5.71,10.26Z"/>
  </g>
  <g>
    <line class="cls-6" x1="539.46" y1="345.74" x2="539.46" y2="363.82"/>
    <polygon class="cls-9" points="539.46 337.27 534.58 349.21 539.46 346.37 544.33 349.21 539.46 337.27"/>
    <path class="cls-9" d="M539.46,371.07c-1.26-3.41-3.42-7.64-5.71-10.26l5.71,2.06,5.71-2.06c-2.29,2.62-4.44,6.85-5.71,10.26Z"/>
  </g>
  <g>
    <line class="cls-6" x1="124.47" y1="345.74" x2="124.47" y2="363.82"/>
    <polygon class="cls-9" points="124.47 337.27 119.59 349.21 124.47 346.37 129.35 349.21 124.47 337.27"/>
    <path class="cls-9" d="M124.47,371.07c-1.26-3.41-3.42-7.64-5.71-10.26l5.71,2.06,5.71-2.06c-2.29,2.62-4.44,6.85-5.71,10.26Z"/>
  </g>
  <g>
    <line class="cls-6" x1="127.41" y1="449.56" x2="127.41" y2="467.84"/>
    <polygon class="cls-9" points="127.41 441.08 122.53 453.02 127.41 450.19 132.29 453.02 127.41 441.08"/>
    <path class="cls-9" d="M127.41,475.08c-1.26-3.41-3.42-7.64-5.71-10.26l5.71,2.06,5.71-2.06c-2.29,2.62-4.44,6.85-5.71,10.26Z"/>
  </g>
  <g>
    <line class="cls-6" x1="306.65" y1="456.27" x2="306.65" y2="474.55"/>
    <polygon class="cls-9" points="306.65 447.8 301.77 459.74 306.65 456.9 311.52 459.74 306.65 447.8"/>
    <path class="cls-9" d="M306.65,481.8c-1.26-3.41-3.42-7.64-5.71-10.26l5.71,2.06,5.71-2.06c-2.29,2.62-4.44,6.85-5.71,10.26Z"/>
  </g>
  <g>
    <line class="cls-6" x1="675.06" y1="449.56" x2="675.06" y2="467.84"/>
    <polygon class="cls-9" points="675.06 441.08 670.18 453.02 675.06 450.19 679.94 453.02 675.06 441.08"/>
    <path class="cls-9" d="M675.06,475.08c-1.26-3.41-3.42-7.64-5.71-10.26l5.71,2.06,5.71-2.06c-2.29,2.62-4.44,6.85-5.71,10.26Z"/>
  </g>
  <text class="cls-4" transform="translate(397.15 559.47)"><tspan x="0" y="0">Fine-grained APIs</tspan></text>
  <rect class="cls-11" x="260.33" y="77.1" width="139.72" height="50.94" rx="7.5" ry="7.5"/>
  <text class="cls-2" transform="translate(278.39 111.19)"><tspan x="0" y="0">LLM app</tspan></text>
  <text class="cls-2" transform="translate(469.21 111.19)"><tspan x="0" y="0">LLM app</tspan></text>
  <text class="cls-2" transform="translate(660.03 111.19)"><tspan x="0" y="0">LLM app</tspan></text>
  <g>
    <line class="cls-8" x1="327.75" y1="129.52" x2="327.75" y2="233.81"/>
    <path class="cls-10" d="M327.75,242.26c-1.48-3.98-3.99-8.91-6.66-11.97l6.66,2.41,6.66-2.41c-2.67,3.06-5.18,7.99-6.66,11.97Z"/>
  </g>
  <g>
    <line class="cls-8" x1="520.14" y1="128.74" x2="520.14" y2="233.02"/>
    <path class="cls-10" d="M520.14,241.47c-1.48-3.98-3.99-8.91-6.66-11.97l6.66,2.41,6.66-2.41c-2.67,3.06-5.18,7.99-6.66,11.97Z"/>
  </g>
  <g>
    <line class="cls-8" x1="710.09" y1="128.04" x2="710.09" y2="232.32"/>
    <path class="cls-10" d="M710.09,240.77c-1.48-3.98-3.99-8.91-6.66-11.97l6.66,2.41,6.66-2.41c-2.67,3.06-5.18,7.99-6.66,11.97Z"/>
  </g>
  <text class="cls-2" transform="translate(30.5 222.71)"><tspan x="0" y="0">LLM serving system</tspan></text>
  <text class="cls-2" transform="translate(26.58 148.71)"><tspan x="0" y="0">Users</tspan></text>
</svg>